<svg xmlns="http://www.w3.org/2000/svg" viewBox="0 0 512 512"><title>Time_10_O&amp;apos;clock</title><path d="M256 73.82c-100.617 0-182.18 81.563-182.18 182.172S155.383 438.18 256 438.18c100.608 0 182.18-81.571 182.18-182.188 0-100.61-81.572-182.172-182.18-182.172m12.604 204.223c0 .079-.027.149-.027.228a11 11 0 0 1-.149 1.433c-.044.36-.071.73-.15 1.08a11 11 0 0 1-.342 1.1 14 14 0 0 1-.457 1.31c-.036.07-.045.149-.08.22a11.6 11.6 0 0 1-.94 1.652c-.026.035-.052.07-.07.097a13 13 0 0 1-1.327 1.617 8 8 0 0 1-.413.377 11 11 0 0 1-1.318 1.108c-.15.096-.29.21-.44.308a12 12 0 0 1-1.889 1.028c-.141.062-.29.105-.431.158a13 13 0 0 1-1.697.519c-.21.053-.413.105-.623.14a13 13 0 0 1-2.26.228c-.158 0-.307-.052-.465-.052a12.5 12.5 0 0 1-2.153-.238c-.22-.044-.43-.14-.651-.201a13.5 13.5 0 0 1-1.89-.642c-.061-.035-.14-.035-.21-.071l-69.847-32.95a12.599 12.599 0 0 1 10.749-22.79l51.873 24.468V149.424a12.604 12.604 0 1 1 25.207 0Z" data-name="Time 10 O'clock"/></svg>