<svg xmlns="http://www.w3.org/2000/svg" xml:space="preserve" viewBox="0 0 128 128"><path d="M64.43 128c-2.691 0-5.389-.168-8.082-.508l.766-6.027c11.332 1.438 22.763-.488 33.053-5.548a58.1 58.1 0 0 0 30.548-37.255l5.894 1.55a64.18 64.18 0 0 1-33.743 41.15A64.3 64.3 0 0 1 64.43 128m.005-8.204a56.4 56.4 0 0 1-12.829-1.479c-14.596-3.401-26.99-12.263-34.897-24.952S6.326 65.679 9.739 51.134l5.935 1.384c-3.042 12.963-.835 26.332 6.213 37.642 7.049 11.312 18.096 19.21 31.106 22.241 9.667 2.254 19.664 1.615 28.917-1.845l2.141 5.687a55.9 55.9 0 0 1-19.616 3.553m-32.283-.425C21.139 113.034 12.33 103.653 6.68 92.246c-7.608-15.358-8.758-32.75-3.24-48.97 5.52-16.22 17.048-29.328 32.461-36.909l2.699 5.448C24.646 18.677 14.21 30.543 9.214 45.226c-4.997 14.685-3.955 30.428 2.933 44.331 5.116 10.328 13.088 18.818 23.054 24.554zm32.31-7.797c-16.328.002-32.259-8.307-41.212-23.267-13.525-22.601-6.076-51.953 16.605-65.43a47.8 47.8 0 0 1 16.354-6.045l1.038 5.985a41.7 41.7 0 0 0-14.271 5.277c-19.793 11.76-26.294 37.375-14.491 57.099 11.802 19.726 37.508 26.201 57.303 14.44 7.122-4.233 12.764-10.395 16.315-17.824l5.503 2.614c-4.07 8.514-10.535 15.577-18.696 20.426a47.7 47.7 0 0 1-24.448 6.725m38.48-7.073-4.183-4.417c7.133-6.707 12.09-15.308 14.334-24.871 2.452-10.448 1.507-21.165-2.731-30.992l5.6-2.398c4.757 11.027 5.817 23.051 3.067 34.774-2.518 10.727-8.081 20.377-16.087 27.904m-38.558-1.123c-21.866 0-39.655-17.725-39.655-39.513s17.789-39.514 39.655-39.514c7.81 0 15.368 2.261 21.856 6.54l-3.364 5.066a33.5 33.5 0 0 0-18.492-5.532c-18.504 0-33.559 15.001-33.559 33.439S45.88 97.303 64.384 97.303s33.558-15 33.558-33.439a33.2 33.2 0 0 0-5.626-18.539l5.07-3.373a39.2 39.2 0 0 1 6.652 21.913c0 21.789-17.789 39.513-39.654 39.513m0-9.119c-16.82 0-30.503-13.634-30.503-30.393s13.683-30.394 30.503-30.394c16.819 0 30.502 13.635 30.502 30.394S81.202 94.259 64.384 94.259m0-54.714c-13.458 0-24.407 10.91-24.407 24.32s10.949 24.319 24.407 24.319S88.79 77.275 88.79 63.865s-10.949-24.32-24.406-24.32m47.845 26.515-6.09-.285c.384-8.156-1.642-16.192-5.859-23.239-5.97-9.977-15.943-17.062-27.36-19.439l1.246-5.946c13.081 2.723 24.508 10.842 31.349 22.275 4.833 8.073 7.154 17.284 6.714 26.634m9.746-11.027a57.9 57.9 0 0 0-5.356-16.86c-9.04-18.251-26.596-30.26-46.961-32.125L70.216 0C92.71 2.059 112.1 15.324 122.087 35.484A64 64 0 0 1 128 54.107zM24.243 34.097l-4.888-3.628C32.71 12.608 55.401 4.346 77.161 9.415c9.272 2.16 17.88 6.652 24.893 12.988l-4.096 4.5c-6.247-5.646-13.918-9.647-22.185-11.574-19.398-4.518-39.626 2.848-51.53 18.768" style="fill:#231f20"/></svg>