<svg xmlns="http://www.w3.org/2000/svg" viewBox="0 0 24 24"><path d="M19.363 2.38H4.637A2.26 2.26 0 0 0 2.38 4.637v14.726a2.26 2.26 0 0 0 2.257 2.257h14.726a2.26 2.26 0 0 0 2.257-2.257V4.637a2.26 2.26 0 0 0-2.257-2.257m1.226 16.983a1.227 1.227 0 0 1-1.226 1.226H4.637a1.227 1.227 0 0 1-1.226-1.226v-1.624h17.178Zm0-2.654H3.411V4.637a1.227 1.227 0 0 1 1.226-1.226h14.726a1.227 1.227 0 0 1 1.226 1.226Z"/><path d="M15.413 8.111a.516.516 0 0 0-.791-.078l-3.011 2.984-2.23-1.734a.514.514 0 0 0-.7.064L4.9 13.6a.516.516 0 0 0 .771.685l3.46-3.891 2.206 1.716a.514.514 0 0 0 .679-.041l2.89-2.869 3.383 5.025a.515.515 0 1 0 .855-.576Z"/><path d="M12 8.574A1.976 1.976 0 1 0 10.024 6.6 1.98 1.98 0 0 0 12 8.574m0-2.92a.945.945 0 1 1-.945.944.945.945 0 0 1 .945-.944"/></svg>