<svg xmlns="http://www.w3.org/2000/svg" viewBox="0 0 32 32"><g data-name="camera android app aplication phone"><path d="M30.56 8.47a8 8 0 0 0-7-7 64.3 64.3 0 0 0-15.06 0 8 8 0 0 0-7 7 64.3 64.3 0 0 0 0 15.06 8 8 0 0 0 7 7 64.3 64.3 0 0 0 15.06 0 8 8 0 0 0 7-7 64.3 64.3 0 0 0 0-15.06M8.7 3.42a63.7 63.7 0 0 1 14.6 0 6 6 0 0 1 5.28 5.28A63 63 0 0 1 29 15h-5a8 8 0 0 0-15.93 0H3a63 63 0 0 1 .39-6.3A6 6 0 0 1 8.7 3.42M22 16a6 6 0 1 1-6-6 6 6 0 0 1 6 6m1.3 12.58a63.7 63.7 0 0 1-14.6 0 6 6 0 0 1-5.28-5.28A63 63 0 0 1 3 17h5a8 8 0 0 0 15.86 0h5a63 63 0 0 1-.39 6.3 6 6 0 0 1-5.17 5.28"/><path d="M16 12a4 4 0 1 0 4 4 4 4 0 0 0-4-4m0 6a2 2 0 1 1 2-2 2 2 0 0 1-2 2"/><circle cx="24" cy="8" r="1"/></g></svg>