<?xml version="1.0" encoding="iso-8859-1"?>
<!-- Generator: Adobe Illustrator 24.0.3, SVG Export Plug-In . SVG Version: 6.00 Build 0)  -->
<svg version="1.1" xmlns="http://www.w3.org/2000/svg" xmlns:xlink="http://www.w3.org/1999/xlink" x="0px" y="0px"
	 viewBox="0 0 64 64" style="enable-background:new 0 0 64 64;" xml:space="preserve">
<g id="coffee-cup">
	<path style="fill:#ABD8C7;" d="M61.948,19.134l-0.885,4.764H30.075l-0.885-4.764H61.948z M42.498,45.689v2.2
		c0,3.028-1.302,5.751-3.369,7.659h16.054l1.829-9.86H42.498z M10.639,31.593V47.89c0,4.799,3.905,8.704,8.704,8.704H32.05
		c4.804,0,8.709-3.905,8.709-8.704V31.593H10.639z"/>
	<path style="fill:#9AC1B1;" d="M38.481,31.449v16.297c0,4.799-3.905,8.704-8.709,8.704h3.542c4.804,0,8.709-3.905,8.709-8.704
		V31.449H38.481z"/>
	<path style="fill:#47705D;" d="M63.798,24.221c-0.164-0.199-0.407-0.323-0.669-0.323h-0.297l0.943-5.069
		c0.133-0.155,0.221-0.35,0.221-0.567v-5.866c0-0.478-0.39-0.868-0.868-0.868h-0.562L59.026,6.06
		c-0.159-0.248-0.434-0.398-0.726-0.398H32.842c-0.297,0-0.571,0.151-0.73,0.398l-3.542,5.468h-0.558
		c-0.483,0-0.872,0.39-0.872,0.868v5.866c0,0.217,0.089,0.412,0.221,0.567l0.943,5.069h-0.292c-0.261,0-0.514,0.124-0.677,0.323
		c-0.164,0.208-0.226,0.469-0.173,0.731l1.009,4.901H9.767c-0.478,0-0.868,0.39-0.868,0.868v3.391C3.985,34.138,0,38.141,0,43.068
		c0,4.932,4.011,8.948,8.943,8.948h0.806c1.603,3.715,5.3,6.322,9.594,6.322H32.05c1.625,0,3.157-0.385,4.525-1.045h19.33
		c0.425,0,0.784-0.297,0.863-0.717l2.019-10.887h0.217c0.407,0,0.766-0.288,0.854-0.7l4.126-20.038
		C64.033,24.69,63.967,24.429,63.798,24.221z M8.943,50.272c-3.971,0-7.203-3.232-7.203-7.212c0-3.958,3.205-7.177,7.159-7.203
		V47.89c0,0.823,0.102,1.616,0.283,2.382H8.943z M33.316,7.406h24.51l2.67,4.122H30.646L33.316,7.406z M32.05,56.594H19.343
		c-4.799,0-8.704-3.905-8.704-8.704V31.593h30.119V47.89C40.758,52.689,36.853,56.594,32.05,56.594z M55.183,55.549H39.129
		c2.068-1.908,3.369-4.631,3.369-7.659v-2.2h14.513L55.183,55.549z M41.972,29.924c1.009-0.748,2.249-1.195,3.599-1.195
		c3.343,0,6.066,2.723,6.066,6.07s-2.723,6.066-6.066,6.066c-1.12,0-2.169-0.305-3.073-0.841V30.72
		C42.498,30.362,42.281,30.056,41.972,29.924z M58.291,43.945H42.498v-1.979c0.943,0.407,1.979,0.642,3.073,0.642
		c4.303,0,7.805-3.507,7.805-7.81c0-4.308-3.502-7.81-7.805-7.81c-2.426,0-4.591,1.12-6.021,2.865h-9.607l-0.868-4.21h32.984
		L58.291,43.945z M29.19,19.134h32.758l-0.885,4.764H30.075L29.19,19.134z M62.258,17.39H28.88v-4.122h33.378V17.39z"/>
</g>
<g id="Layer_1">
</g>
</svg>
