<svg xmlns="http://www.w3.org/2000/svg" viewBox="0 0 48 48"><title>21-Noodle with chopstick</title><g id="_21-Noodle_with_chopstick" data-name="21-Noodle with chopstick"><path d="M35,48H13a1,1,0,0,1-1-1V42.788A24.007,24.007,0,0,1,0,22a1,1,0,0,1,1-1H47a1,1,0,0,1,1,1A24.007,24.007,0,0,1,36,42.788V47A1,1,0,0,1,35,48ZM14,46H34V42.2a1,1,0,0,1,.521-.878A22.01,22.01,0,0,0,45.978,23H2.022A22.01,22.01,0,0,0,13.479,41.325,1,1,0,0,1,14,42.2Z"/><rect x="13" y="41" width="18" height="2"/><path d="M14,31H8a1,1,0,0,1-1-1V27H2V25H8a1,1,0,0,1,1,1v3h4V27H11V25h3a1,1,0,0,1,1,1v4A1,1,0,0,1,14,31Z"/><rect x="2" y="29" width="3" height="2"/><path d="M30,31H24a1,1,0,0,1-1-1V27H19v2h2v2H18a1,1,0,0,1-1-1V26a1,1,0,0,1,1-1h6a1,1,0,0,1,1,1v3h4V27H27V25h3a1,1,0,0,1,1,1v4A1,1,0,0,1,30,31Z"/><rect x="43" y="25" width="3" height="2"/><path d="M46,31H40a1,1,0,0,1-1-1V27H35v2h2v2H34a1,1,0,0,1-1-1V26a1,1,0,0,1,1-1h6a1,1,0,0,1,1,1v3h5Z"/><rect x="10" y="4" width="2" height="17"/><rect x="13" y="3" width="2" height="17"/><rect x="16" y="3" width="2" height="18"/><rect x="19" y="2" width="2" height="18"/><rect x="22" y="2" width="2" height="19"/><rect x="24.955" y="1" width="22.091" height="2" transform="matrix(0.996, -0.091, 0.091, 0.996, -0.033, 3.277)"/><rect x="24.955" y="4" width="22.091" height="2" transform="matrix(0.996, -0.091, 0.091, 0.996, -0.305, 3.289)"/></g></svg>