<svg xmlns="http://www.w3.org/2000/svg" viewBox="0 0 48 48"><title>21-Noodle with chopstick</title><g data-name="21-Noodle with chopstick"><path d="M35 48H13a1 1 0 0 1-1-1v-4.212A24.01 24.01 0 0 1 0 22a1 1 0 0 1 1-1h46a1 1 0 0 1 1 1 24.01 24.01 0 0 1-12 20.788V47a1 1 0 0 1-1 1m-21-2h20v-3.8a1 1 0 0 1 .521-.878A22.01 22.01 0 0 0 45.978 23H2.022a22.01 22.01 0 0 0 11.457 18.325A1 1 0 0 1 14 42.2Z"/><path d="M13 41h18v2H13zm1-10H8a1 1 0 0 1-1-1v-3H2v-2h6a1 1 0 0 1 1 1v3h4v-2h-2v-2h3a1 1 0 0 1 1 1v4a1 1 0 0 1-1 1"/><path d="M2 29h3v2H2zm28 2h-6a1 1 0 0 1-1-1v-3h-4v2h2v2h-3a1 1 0 0 1-1-1v-4a1 1 0 0 1 1-1h6a1 1 0 0 1 1 1v3h4v-2h-2v-2h3a1 1 0 0 1 1 1v4a1 1 0 0 1-1 1m13-6h3v2h-3z"/><path d="M46 31h-6a1 1 0 0 1-1-1v-3h-4v2h2v2h-3a1 1 0 0 1-1-1v-4a1 1 0 0 1 1-1h6a1 1 0 0 1 1 1v3h5ZM10 4h2v17h-2zm3-1h2v17h-2zm3 0h2v18h-2zm3-1h2v18h-2zm3 0h2v19h-2zm2.913.002 22.003-2.01.182 1.992-22.003 2.01zm.001 3 22.003-2.01.182 1.992-22.003 2.01z"/></g></svg>