<svg xmlns="http://www.w3.org/2000/svg" width="128" height="128" viewBox="0 0 128 128"><title>TEA</title><path d="M110.312 85H86.9a21.96 21.96 0 0 0 9.34-12.75h.36a21.045 21.045 0 0 0 21.021-21.021 8.49 8.49 0 0 0-8.479-8.479H96.991v-4a1.75 1.75 0 0 0-1.75-1.75H41.449a1.75 1.75 0 0 0-1.75 1.75v27.787A21.96 21.96 0 0 0 49.79 85H26.378a2.09 2.09 0 0 0-2.086 2.087 10.61 10.61 0 0 0 10.6 10.6H101.8a10.61 10.61 0 0 0 10.6-10.6A2.09 2.09 0 0 0 110.312 85m-48.55-31.833A4.84 4.84 0 0 1 66.6 58v7.833h-9.672V58a4.84 4.84 0 0 1 4.834-4.833M43.2 66.537V40.5h16.812v9.355A8.345 8.345 0 0 0 53.428 58v9.583a1.75 1.75 0 0 0 1.75 1.75h13.167a1.75 1.75 0 0 0 1.75-1.75V58a8.344 8.344 0 0 0-6.583-8.145V40.5h29.979v4a1.75 1.75 0 0 0 1.75 1.75h13.9a4.985 4.985 0 0 1 4.979 4.979A17.54 17.54 0 0 1 96.6 68.75h-1.753a1.75 1.75 0 0 0-1.716 1.409A18.5 18.5 0 0 1 75.028 85H61.662A18.483 18.483 0 0 1 43.2 66.537m58.6 27.649H34.891a7.11 7.11 0 0 1-6.958-5.686h80.824a7.11 7.11 0 0 1-6.957 5.686"/><path d="M95.3 65.625h2.516c5.133 0 13-6.972 13-13a4.27 4.27 0 0 0-4.267-4.266H95.3a1.75 1.75 0 0 0-1.75 1.75v13.766a1.75 1.75 0 0 0 1.75 1.75m1.75-13.765h9.5a.77.77 0 0 1 .767.766c0 4.008-6.06 9.5-9.5 9.5h-.766Z"/></svg>